<mxfile host="Electron" agent="Mozilla/5.0 (X11; Linux x86_64) AppleWebKit/537.36 (KHTML, like Gecko) draw.io/24.7.17 Chrome/128.0.6613.36 Electron/32.0.1 Safari/537.36" version="24.7.17">
  <diagram name="Page-1" id="x06RyQpvFY75FsCddVEx">
    <mxGraphModel dx="1114" dy="1975" grid="1" gridSize="10" guides="1" tooltips="1" connect="1" arrows="1" fold="1" page="1" pageScale="1" pageWidth="850" pageHeight="1100" math="0" shadow="0">
      <root>
        <mxCell id="0" />
        <mxCell id="1" parent="0" />
        <mxCell id="qiQFbPYBI-pmCz6WCucA-1" value="" style="line;strokeWidth=2;html=1;strokeColor=#3399FF;opacity=50;" vertex="1" parent="1">
          <mxGeometry x="170" y="-470" width="630" height="10" as="geometry" />
        </mxCell>
        <mxCell id="qiQFbPYBI-pmCz6WCucA-2" value="" style="line;strokeWidth=2;html=1;strokeColor=#3399FF;opacity=50;" vertex="1" parent="1">
          <mxGeometry x="170" y="-464" width="630" height="10" as="geometry" />
        </mxCell>
      </root>
    </mxGraphModel>
  </diagram>
</mxfile>
